<svg width="40" height="40" viewBox="0 0 40 40" fill="none" xmlns="http://www.w3.org/2000/svg">
<mask id="mask0_117_43" style="mask-type:alpha" maskUnits="userSpaceOnUse" x="0" y="0" width="40" height="40">
<rect width="40" height="40" fill="#D9D9D9"/>
</mask>
<g mask="url(#mask0_117_43)">
<path d="M11.1045 35.625C9.94222 35.625 9 34.6828 9 33.5205C9 32.3582 9.94222 31.416 11.1045 31.416H37.5205C38.6828 31.416 39.625 32.3582 39.625 33.5205C39.625 34.6828 38.6828 35.625 37.5205 35.625H11.1045ZM11.104 22.416C9.94199 22.416 9 21.474 9 20.312C9 19.15 9.94199 18.208 11.104 18.208H37.521C38.683 18.208 39.625 19.15 39.625 20.312C39.625 21.474 38.683 22.416 37.521 22.416H11.104ZM11.125 9.25C9.95139 9.25 9 8.2986 9 7.125C9 5.95139 9.95139 5 11.125 5H37.5C38.6736 5 39.625 5.95139 39.625 7.125C39.625 8.2986 38.6736 9.25 37.5 9.25H11.125Z" fill="white"/>
</g>
</svg>
