<svg width="40" height="40" viewBox="0 0 40 40" fill="none" xmlns="http://www.w3.org/2000/svg">
<mask id="mask0_117_49" style="mask-type:alpha" maskUnits="userSpaceOnUse" x="0" y="0" width="40" height="40">
<rect width="40" height="40" fill="#D9D9D9"/>
</mask>
<g mask="url(#mask0_117_49)">
<path d="M19.375 14.083V9.08299H14.292V6.41699H19.375V1.41699H22V6.41699H27.042V9.08299H22V14.083H19.375ZM12.042 36.917C11.2087 36.917 10.4933 36.6183 9.89599 36.021C9.29866 35.4237 8.99999 34.7083 8.99999 33.875C8.99999 33.0417 9.29866 32.3263 9.89599 31.729C10.4933 31.1317 11.2087 30.833 12.042 30.833C12.8753 30.833 13.5837 31.1317 14.167 31.729C14.7503 32.3263 15.042 33.0417 15.042 33.875C15.042 34.7083 14.7503 35.4237 14.167 36.021C13.5837 36.6183 12.8753 36.917 12.042 36.917ZM28.583 36.917C27.7497 36.917 27.0347 36.6183 26.438 36.021C25.8407 35.4237 25.542 34.7083 25.542 33.875C25.542 33.0417 25.8407 32.3263 26.438 31.729C27.0347 31.1317 27.7497 30.833 28.583 30.833C29.4163 30.833 30.1317 31.1317 30.729 31.729C31.3263 32.3263 31.625 33.0417 31.625 33.875C31.625 34.7083 31.3263 35.4237 30.729 36.021C30.1317 36.6183 29.4163 36.917 28.583 36.917ZM12.042 28.458C10.6527 28.458 9.63166 27.8887 8.97899 26.75C8.32633 25.6113 8.31933 24.4587 8.95799 23.292L11.292 19.125L5.45799 6.66699H2.04199V2.99999H7.83299L14.542 17.375H26.292L32.417 6.41699L35.667 8.16699L29.458 19.292C29.1527 19.8473 28.743 20.2847 28.229 20.604C27.715 20.9233 27.111 21.083 26.417 21.083H14.417L12.375 24.792H32.125V28.458H12.042Z" fill="#F3EFFF"/>
</g>
</svg>
